/* XPM */
static char * charset_xpm[] = {
"128 64 3 1",
" 	c None",
".	c #FFFFFF",
"+	c #000000",
"........++++........++++++++++++........++++........+++++++++++++.+.+.+.........+.+.+.+.........................................",
"........++++........++++++++++++........++++........++++++++++++.+.+.+.+.........+.+.+.+..+..+.....+++......+.............++++..",
"........++++........++++++++++++........++++........+++++++++++++.+.+.+.........+.+.+.+...+..+....+...+...+++++..........+....+.",
"........++++........++++++++++++........++++........++++++++++++.+.+.+.+.........+.+.+.+.........++++.....+.+......+.........+..",
"................................++++....++++....++++....++++....+.+.+.+.+.+.+.+...................+.......+++++.............+...",
"................................++++....++++....++++....++++.....+.+.+.+.+.+.+.+..................+.........+.+.................",
"................................++++....++++....++++....++++....+.+.+.+.+.+.+.+..................++++++...+++++....+........+...",
"................................++++....++++....++++....++++.....+.+.+.+.+.+.+.+............................+...................",
"................................................................................................................................",
".....+....+.......................................................................................++++.....++.....++++....++++..",
"....+......+.......+.........+..............+..............+.+........+....+.....................+...++...+.+....+....+..+....+.",
"....+......+........+.......+.....+++++.....+...............+........+...........................+..+.+.....+.........+.....++..",
"....+......+.........+.....+..............+++++...+++++...+++++.....+............................+.+..+.....+.....++++........+.",
"....+......+........+.......+.....+++++.....+...............+......+.......+........+......++....++...+.....+....+.......+....+.",
".....+....+........+.........+..............+..............+.+....+........+........+......++.....++++....+++++..++++++...++++..",
"..........................................................................+........+............................................",
"................................................................................................................................",
"....+....++++++...++++...++++++...++++....++++....++++...+++++....++++...++++....++++++..++++++...++++...+....+...+++++.......+.",
"...++....+.......+............+..+....+..+....+..+....+..+....+..+....+..+...+...+.......+.......+....+..+....+.....+.........+.",
"..+.+....+++++...+++++.......+....++++...+....+..+....+..+++++...+.......+....+..+++++...+++++...+.......++++++.....+.........+.",
".+..+.........+..+....+.....+....+....+...+++++..++++++..+....+..+.......+....+..+.......+.......+..+++..+....+.....+....+....+.",
".++++++..+....+..+....+....+.....+....+.......+..+....+..+....+..+....+..+...+...+.......+.......+....+..+....+.....+....+....+.",
"....+.....++++....++++.....+......++++....++++...+....+..+++++....++++...++++....++++++..+........++++...+....+...+++++...++++..",
"................................................................................................................................",
"................................................................................................................................",
".+...+...+.......+....+..+....+...++++...+++++....++++...+++++....++++..+++++++..+....+..+....+..+....+..+....+.+.....+..++++++.",
".+..+....+.......++..++..++...+..+....+..+....+..+....+..+....+..+.........+.....+....+..+....+..+....+...+..+...+...+.......+..",
".+++.....+.......+.++.+..+.+..+..+....+..+....+..+....+..+....+...++++.....+.....+....+..+....+..+....+....++.....+.+.......+...",
".+..+....+.......+....+..+..+.+..+....+..+++++...+.+..+..+++++........+....+.....+....+..+....+..+....+....++......+.......+....",
".+...+...+.......+....+..+...++..+....+..+.......+..+.+..+...+...+....+....+.....+....+...+..+...+.++.+...+..+.....+......+.....",
".+....+..++++++..+....+..+....+...++++...+........++++...+....+...++++.....+......++++.....++.....+..+...+....+....+.....++++++.",
"................................................................................................................................",
"++++++++....++++++++............++++++++....++++++++.............+.+.+.+++++++++.+.+.+.+++++++++++++++++++++++++++++++++++++++++",
"++++++++....++++++++............++++++++....++++++++............+.+.+.+.+++++++++.+.+.+.++.++.+++++...++++++.+++++++++++++....++",
"++++++++....++++++++............++++++++....++++++++.............+.+.+.+++++++++.+.+.+.+++.++.++++.+++.+++.....++++++++++.++++.+",
"++++++++....++++++++............++++++++....++++++++............+.+.+.+.+++++++++.+.+.+.+++++++++....+++++.+.++++++.+++++++++.++",
"++++++++++++++++++++++++++++++++....++++....++++....++++....++++.+.+.+.+.+.+.+.+++++++++++++++++++.+++++++.....+++++++++++++.+++",
"++++++++++++++++++++++++++++++++....++++....++++....++++....+++++.+.+.+.+.+.+.+.++++++++++++++++++.+++++++++.+.+++++++++++++++++",
"++++++++++++++++++++++++++++++++....++++....++++....++++....++++.+.+.+.+.+.+.+.++++++++++++++++++......+++.....++++.++++++++.+++",
"++++++++++++++++++++++++++++++++....++++....++++....++++....+++++.+.+.+.+.+.+.+.++++++++++++++++++++++++++++.+++++++++++++++++++",
"++++++++++++++++++++++++++++++++++++++++++++++++++++++++++++++++++++++++++++++++++++++++++++++++++++++++++++++++++++++++++++++++",
"+++++.++++.+++++++++++++++++++++++++++++++++++++++++++++++++++++++++++++++++++++++++++++++++++++++....+++++..+++++....++++....++",
"++++.++++++.+++++++.+++++++++.++++++++++++++.++++++++++++++.+.++++++++.++++.+++++++++++++++++++++.+++..+++.+.++++.++++.++.++++.+",
"++++.++++++.++++++++.+++++++.+++++.....+++++.+++++++++++++++.++++++++.+++++++++++++++++++++++++++.++.+.+++++.+++++++++.+++++..++",
"++++.++++++.+++++++++.+++++.++++++++++++++.....+++.....+++.....+++++.++++++++++++++++++++++++++++.+.++.+++++.+++++....++++++++.+",
"++++.++++++.++++++++.+++++++.+++++.....+++++.+++++++++++++++.++++++.+++++++.++++++++.++++++..++++..+++.+++++.++++.+++++++.++++.+",
"+++++.++++.++++++++.+++++++++.++++++++++++++.++++++++++++++.+.++++.++++++++.++++++++.++++++..+++++....++++.....++......+++....++",
"++++++++++++++++++++++++++++++++++++++++++++++++++++++++++++++++++++++++++.++++++++.++++++++++++++++++++++++++++++++++++++++++++",
"++++++++++++++++++++++++++++++++++++++++++++++++++++++++++++++++++++++++++++++++++++++++++++++++++++++++++++++++++++++++++++++++",
"++++.++++......+++....+++......+++....++++....++++....+++.....++++....+++....++++......++......+++....+++.++++.+++.....+++++++.+",
"+++..++++.+++++++.++++++++++++.++.++++.++.++++.++.++++.++.++++.++.++++.++.+++.+++.+++++++.+++++++.++++.++.++++.+++++.+++++++++.+",
"++.+.++++.....+++.....+++++++.++++....+++.++++.++.++++.++.....+++.+++++++.++++.++.....+++.....+++.+++++++......+++++.+++++++++.+",
"+.++.+++++++++.++.++++.+++++.++++.++++.+++.....++......++.++++.++.+++++++.++++.++.+++++++.+++++++.++...++.++++.+++++.++++.++++.+",
"+......++.++++.++.++++.++++.+++++.++++.+++++++.++.++++.++.++++.++.++++.++.+++.+++.+++++++.+++++++.++++.++.++++.+++++.++++.++++.+",
"++++.+++++....++++....+++++.++++++....++++....+++.++++.++.....++++....+++....++++......++.++++++++....+++.++++.+++.....+++....++",
"++++++++++++++++++++++++++++++++++++++++++++++++++++++++++++++++++++++++++++++++++++++++++++++++++++++++++++++++++++++++++++++++",
"++++++++++++++++++++++++++++++++++++++++++++++++++++++++++++++++++++++++++++++++++++++++++++++++++++++++++++++++++++++++++++++++",
"+.+++.+++.+++++++.++++.++.++++.+++....+++.....++++....+++.....++++....++.......++.++++.++.++++.++.++++.++.++++.+.+++++.++......+",
"+.++.++++.+++++++..++..++..+++.++.++++.++.++++.++.++++.++.++++.++.+++++++++.+++++.++++.++.++++.++.++++.+++.++.+++.+++.+++++++.++",
"+...+++++.+++++++.+..+.++.+.++.++.++++.++.++++.++.++++.++.++++.+++....+++++.+++++.++++.++.++++.++.++++.++++..+++++.+.+++++++.+++",
"+.++.++++.+++++++.++++.++.++.+.++.++++.++.....+++.+.++.++.....++++++++.++++.+++++.++++.++.++++.++.++++.++++..++++++.+++++++.++++",
"+.+++.+++.+++++++.++++.++.+++..++.++++.++.+++++++.++.+.++.+++.+++.++++.++++.+++++.++++.+++.++.+++.+..+.+++.++.+++++.++++++.+++++",
"+.++++.++......++.++++.++.++++.+++....+++.++++++++....+++.++++.+++....+++++.++++++....+++++..+++++.++.+++.++++.++++.+++++......+",
"++++++++++++++++++++++++++++++++++++++++++++++++++++++++++++++++++++++++++++++++++++++++++++++++++++++++++++++++++++++++++++++++"};
